# Made in Blockbench 4.7.4
mtllib segment_left.mtl

o tie1
v 0.07499999999999996 0.10468749999999993 0
v -0.07499999999999996 0.10468749999999993 0
v -0.07499999999999996 0.1442874999999999 0
v 0.07499999999999996 0.1442874999999999 0
v 0.07499999999999996 0.10468749999999993 0.499999999999999
v 0.07499999999999996 0.1442874999999999 0.499999999999999
v -0.07499999999999996 0.10468749999999993 0.499999999999999
v -0.07499999999999996 0.1442874999999999 0.499999999999999
vt 0.5 0.8515625
vt 0.578125 0.8515625
vt 0.578125 0.875
vt 0.5 0.875
vt 0 0.5390625
vt 0.5 0.5390625
vt 0.5 0.5625
vt 0 0.5625
vt 0.5 0.8828125
vt 0.578125 0.8828125
vt 0.578125 0.90625
vt 0.5 0.90625
vt 0 0.5078125
vt 0.5 0.5078125
vt 0.5 0.53125
vt 0 0.53125
vt 0 1
vt 0 0.921875
vt 0.5 0.921875
vt 0.5 1
vt 0.5 0.90625
vt 0.5 0.828125
vt 0 0.828125
vt 0 0.90625
vn 0 0 -1
vn 1 0 0
vn 0 0 1
vn -1 0 0
vn 0 1 0
vn 0 -1 0
usemtl m_9d8b9f2b-cd0e-d338-ca0b-33706c8181e6
f 1/1/1 2/2/1 3/3/1 4/4/1
f 5/5/2 1/6/2 4/7/2 6/8/2
f 7/9/3 5/10/3 6/11/3 8/12/3
f 2/13/4 7/14/4 8/15/4 3/16/4
f 8/17/5 6/18/5 4/19/5 3/20/5
f 2/21/6 1/22/6 5/23/6 7/24/6
o tie2
v 0.010399999999999965 0.14374999999999993 0
v -0.010399999999999965 0.14374999999999993 0
v -0.010399999999999965 0.23750000000000004 0
v 0.010399999999999965 0.23750000000000004 0
v 0.010399999999999965 0.14374999999999993 0.499999999999999
v 0.010399999999999965 0.23750000000000004 0.499999999999999
v -0.010399999999999965 0.14374999999999993 0.499999999999999
v -0.010399999999999965 0.23750000000000004 0.499999999999999
vt 0.5 0.671875
vt 0.5078125 0.671875
vt 0.5078125 0.71875
vt 0.5 0.71875
vt 0 0.765625
vt 0.5 0.765625
vt 0.5 0.8125
vt 0 0.8125
vt 0.5 0.734375
vt 0.5078125 0.734375
vt 0.5078125 0.78125
vt 0.5 0.78125
vt 0 0.703125
vt 0.5 0.703125
vt 0.5 0.75
vt 0 0.75
vt 0.5 0.96875
vt 0.5 0.9609375
vt 1 0.9609375
vt 1 0.96875
vt 1 0.9375
vt 1 0.9296875
vt 0.5 0.9296875
vt 0.5 0.9375
vn 0 0 -1
vn 1 0 0
vn 0 0 1
vn -1 0 0
vn 0 1 0
vn 0 -1 0
usemtl m_9d8b9f2b-cd0e-d338-ca0b-33706c8181e6
f 9/25/7 10/26/7 11/27/7 12/28/7
f 13/29/8 9/30/8 12/31/8 14/32/8
f 15/33/9 13/34/9 14/35/9 16/36/9
f 10/37/10 15/38/10 16/39/10 11/40/10
f 16/41/11 14/42/11 12/43/11 11/44/11
f 10/45/12 9/46/12 13/47/12 15/48/12
o tie3
v -0.037221124465960265 0.23878680701413468 0
v 0.035734405906433675 0.2362391437548521 0
v 0.037221124465960265 0.2788131929858657 0
v -0.03573440590643373 0.2813608562451483 0
v -0.037221124465960265 0.23878680701413468 0.499999999999999
v -0.03573440590643373 0.2813608562451483 0.499999999999999
v 0.035734405906433675 0.2362391437548521 0.499999999999999
v 0.037221124465960265 0.2788131929858657 0.499999999999999
vt 0.5390625 0.8125
vt 0.5390625 0.7890625
vt 0.5 0.7890625
vt 0.5 0.8125
vt 0.5 0.5
vt 0.5 0.4765625
vt 0 0.4765625
vt 0 0.5
vt 0.5390625 0.84375
vt 0.5390625 0.8203125
vt 0.5 0.8203125
vt 0.5 0.84375
vt 1 1
vt 1 0.9765625
vt 0.5 0.9765625
vt 0.5 1
vt 0.2890625 0.6484375
vt 0 0.6484375
vt 0 0.6875
vt 0.2890625 0.6875
vt 0 0.5859375
vt 0.5 0.5859375
vt 0.5 0.625
vt 0 0.625
vn 0 0 -1
vn -0.9993908270190959 0.034899496702500706 0
vn 0 0 1
vn 0.9993908270190959 -0.03489949670250201 0
vn 0.034899496702501004 0.9993908270190959 0
vn -0.03489949670250103 -0.9993908270190959 0
usemtl m_9d8b9f2b-cd0e-d338-ca0b-33706c8181e6
f 19/49/13 18/50/13 17/51/13 20/52/13
f 20/53/14 17/54/14 21/55/14 22/56/14
f 22/57/15 21/58/15 23/59/15 24/60/15
f 24/61/16 23/62/16 18/63/16 19/64/16
f 20/65/17 22/66/17 24/67/17 19/68/17
f 21/69/18 17/70/18 18/71/18 23/72/18