# Made in Blockbench 4.7.4
mtllib tie.mtl

o cube
v 0.026562500000000044 0.09937499999999999 0.1390625000000001
v -0.75 0.09937499999999999 0.1390625000000001
v -0.75 0.14087499999999997 0.1390625000000001
v 0.026562500000000044 0.14087499999999997 0.1390625000000001
v 0.026562500000000044 0.09937499999999999 0.35906249999999984
v 0.026562500000000044 0.14087499999999997 0.35906249999999984
v -0.75 0.09937499999999999 0.35906249999999984
v -0.75 0.14087499999999997 0.35906249999999984
v 1.75 -0.15937500000000004 0.1390625000000001
v -0.75 -0.15937500000000004 0.1390625000000001
v -0.75 0.09937499999999999 0.1390625000000001
v 1.75 0.09937499999999999 0.1390625000000001
v 1.75 -0.15937500000000004 0.35906249999999984
v 1.75 0.09937499999999999 0.35906249999999984
v -0.75 -0.15937500000000004 0.35906249999999984
v -0.75 0.09937499999999999 0.35906249999999984
v 1.75 0.09937499999999999 0.1390625000000001
v 0.9734375 0.09937499999999999 0.1390625000000001
v 0.9734375 0.14087499999999997 0.1390625000000001
v 1.75 0.14087499999999997 0.1390625000000001
v 1.75 0.09937499999999999 0.35906249999999984
v 1.75 0.14087499999999997 0.35906249999999984
v 0.9734375 0.09937499999999999 0.35906249999999984
v 0.9734375 0.14087499999999997 0.35906249999999984
vt 0.3125 0.78125
vt 0.5 0.78125
vt 0.5 0.796875
vt 0.3125 0.796875
vt 0.25 0.671875
vt 0.3125 0.671875
vt 0.3125 0.6875
vt 0.25 0.6875
vt 0.3125 0.796875
vt 0.5 0.796875
vt 0.5 0.8125
vt 0.3125 0.8125
vt 0.3125 0.734375
vt 0.375 0.734375
vt 0.375 0.75
vt 0.3125 0.75
vt 0.125 0.875
vt 0.125 0.6875
vt 0.1875 0.6875
vt 0.1875 0.875
vt 0.25 0.875
vt 0.25 0.6875
vt 0.1875 0.6875
vt 0.1875 0.875
vt 0 0.875
vt 0.625 0.875
vt 0.625 0.9375
vt 0 0.9375
vt 0.3125 0.8125
vt 0.375 0.8125
vt 0.375 0.875
vt 0.3125 0.875
vt 0 0.9375
vt 0.625 0.9375
vt 0.625 1
vt 0 1
vt 0.1875 0.625
vt 0.25 0.625
vt 0.25 0.6875
vt 0.1875 0.6875
vt 0 0.875
vt 0 0.25
vt 0.0625 0.25
vt 0.0625 0.875
vt 0.125 0.875
vt 0.125 0.25
vt 0.0625 0.25
vt 0.0625 0.875
vt 0.3125 0.75
vt 0.5 0.75
vt 0.5 0.765625
vt 0.3125 0.765625
vt 0.3125 0.71875
vt 0.375 0.71875
vt 0.375 0.734375
vt 0.3125 0.734375
vt 0.3125 0.765625
vt 0.5 0.765625
vt 0.5 0.78125
vt 0.3125 0.78125
vt 0.3125 0.703125
vt 0.375 0.703125
vt 0.375 0.71875
vt 0.3125 0.71875
vt 0.25 0.875
vt 0.25 0.6875
vt 0.3125 0.6875
vt 0.3125 0.875
vt 0.1875 0.6875
vt 0.1875 0.5
vt 0.125 0.5
vt 0.125 0.6875
vn 0 0 -1
vn 1 0 0
vn 0 0 1
vn -1 0 0
vn 0 1 0
vn 0 -1 0
vn 0 0 -1
vn 1 0 0
vn 0 0 1
vn -1 0 0
vn 0 1 0
vn 0 -1 0
vn 0 0 -1
vn 1 0 0
vn 0 0 1
vn -1 0 0
vn 0 1 0
vn 0 -1 0
usemtl m_69de4926-541f-4e51-d342-9198dc72d068
f 1/1/1 2/2/1 3/3/1 4/4/1
f 5/5/2 1/6/2 4/7/2 6/8/2
f 7/9/3 5/10/3 6/11/3 8/12/3
f 2/13/4 7/14/4 8/15/4 3/16/4
f 8/17/5 6/18/5 4/19/5 3/20/5
f 2/21/6 1/22/6 5/23/6 7/24/6
f 9/25/7 10/26/7 11/27/7 12/28/7
f 13/29/8 9/30/8 12/31/8 14/32/8
f 15/33/9 13/34/9 14/35/9 16/36/9
f 10/37/10 15/38/10 16/39/10 11/40/10
f 16/41/11 14/42/11 12/43/11 11/44/11
f 10/45/12 9/46/12 13/47/12 15/48/12
f 17/49/13 18/50/13 19/51/13 20/52/13
f 21/53/14 17/54/14 20/55/14 22/56/14
f 23/57/15 21/58/15 22/59/15 24/60/15
f 18/61/16 23/62/16 24/63/16 19/64/16
f 24/65/17 22/66/17 20/67/17 19/68/17
f 18/69/18 17/70/18 21/71/18 23/72/18