# Made in Blockbench 4.8.3
mtllib cross_d2_zo.mtl

o cube
v 1.5499266776525995 0.30000000000000004 0.5326922868580388
v 1.5352188566039198 0.30000000000000004 0.5179844658093588
v 0.5176480043026535 0.30000000000000004 1.535555318110625
v 0.5323558253513337 0.30000000000000004 1.550263139159305
v 0.5323558253513337 0.20625000000000004 1.550263139159305
v 0.5176480043026535 0.20625000000000004 1.535555318110625
v 1.5352188566039198 0.20625000000000004 0.5179844658093588
v 1.5499266776525995 0.20625000000000004 0.5326922868580388
v 0.4826373797991548 0.30000000000000004 -0.5345970109954066
v 0.4679295587504745 0.30000000000000004 -0.5493048320440863
v -0.5496412935507912 0.30000000000000004 0.46826602025717984
v -0.5349334725021114 0.30000000000000004 0.4829738413058602
v -0.5349334725021114 0.20625000000000004 0.4829738413058602
v -0.5496412935507912 0.20625000000000004 0.46826602025717984
v 0.4679295587504745 0.20625000000000004 -0.5493048320440863
v 0.4826373797991548 0.20625000000000004 -0.5345970109954066
v 0.4719689062380026 0.16718750000000004 1.489876220045974
v 0.5780349234159847 0.16718750000000004 1.5959422372239558
v 0.5780349234159847 0.2067875 1.5959422372239558
v 0.4719689062380026 0.2067875 1.489876220045974
v 1.4895397585392687 0.16718750000000004 0.47230536774470755
v 1.4895397585392687 0.2067875 0.47230536774470755
v 1.5956057757172508 0.16718750000000004 0.5783713849226898
v 1.5956057757172508 0.2067875 0.5783713849226898
v 0.49919251731368464 0.30000000000000004 1.517099831121656
v 0.5508113123403027 0.30000000000000004 1.5687186261482735
v 0.5508113123403027 0.3426 1.5687186261482735
v 0.49919251731368464 0.3426 1.517099831121656
v 1.5167633696149512 0.30000000000000004 0.4995289788203895
v 1.5167633696149512 0.3426 0.4995289788203895
v 1.5683821646415685 0.30000000000000004 0.5511477738470076
v 1.5683821646415685 0.3426 0.5511477738470076
v -0.5953203916154423 0.16718750000000004 0.4225869221925293
v -0.48925437443746067 0.16718750000000004 0.528652939370511
v -0.48925437443746067 0.2067875 0.528652939370511
v -0.5953203916154423 0.2067875 0.4225869221925293
v 0.42225046068582356 0.16718750000000004 -0.5949839301087374
v 0.42225046068582356 0.2067875 -0.5949839301087374
v 0.5283164778638056 0.16718750000000004 -0.4889179129307551
v 0.5283164778638056 0.2067875 -0.4889179129307551
v -0.5680967805397604 0.30000000000000004 0.4498105332682111
v -0.5164779855131426 0.30000000000000004 0.5014293282948292
v -0.5164779855131426 0.3426 0.5014293282948292
v -0.5680967805397604 0.3426 0.4498105332682111
v 0.4494740717615055 0.30000000000000004 -0.5677603190330551
v 0.4494740717615055 0.3426 -0.5677603190330551
v 0.5010928667881234 0.30000000000000004 -0.5161415240064371
v 0.5010928667881234 0.3426 -0.5161415240064371
v -0.24436562499999992 0.20625000000000004 1.000078125
v -0.2443656249999997 0.20625000000000004 0.0000781250000002065
v -0.2443656249999997 0.30000000000000004 0.0000781250000002065
v -0.24436562499999992 0.30000000000000004 1.000078125
v -0.26516562500000007 0.20625000000000004 1.000078125
v -0.26516562500000007 0.30000000000000004 1.000078125
v -0.2651656249999996 0.20625000000000004 0.00007812500000003997
v -0.2651656249999996 0.30000000000000004 0.00007812500000003997
v -0.2183589109414581 0.29984094197175515 1.000078125
v -0.21835891094145787 0.29984094197175515 0.00007812500000009548
v -0.21817303396592824 0.34244053645045835 0.00007812499999992895
v -0.21817303396592835 0.34244053645045835 1.000078125
v -0.29135821603407197 0.3001594635495417 1.000078125
v -0.2911723390585418 0.3427590580282449 1.000078125
v -0.29135821603407175 0.3001594635495417 0.00007812500000015099
v -0.29117233905854134 0.3427590580282449 0.00007812500000026201
v -0.17985273246978273 0.1668604402853735 1.0000781250000002
v -0.1798527324697825 0.1668604402853735 0.00007812500000026201
v -0.17967994542210664 0.20646006332191458 0.00007812500000003997
v -0.1796799454221072 0.20646006332191458 1.0000781250000004
v -0.3298513045778928 0.16751493667808548 1.000078125
v -0.32967851753021704 0.20711455971462656 1.000078125
v -0.32985130457789247 0.16751493667808548 0.00007812500000003997
v -0.32967851753021704 0.20711455971462656 0.0000781250000002065
v 1.265009375 0.20625000000000004 1.0000781250000008
v 1.265009375 0.20625000000000004 0.0000781250000007061
v 1.265009375 0.30000000000000004 0.0000781250000007061
v 1.265009375 0.30000000000000004 1.0000781250000008
v 1.2442093749999996 0.20625000000000004 1.0000781250000004
v 1.2442093749999996 0.30000000000000004 1.0000781250000004
v 1.244209375 0.20625000000000004 0.00007812500000065059
v 1.244209375 0.30000000000000004 0.00007812500000065059
v 1.3296950545778927 0.16751493667808548 1.0000781250000008
v 1.329695054577893 0.16751493667808548 0.0000781250000007061
v 1.329522267530217 0.20711455971462656 0.00007812500000081712
v 1.329522267530217 0.20711455971462656 1.0000781250000008
v 1.1796964824697826 0.1668604402853735 1.0000781250000008
v 1.1795236954221067 0.20646006332191458 1.0000781250000004
v 1.179696482469783 0.1668604402853735 0.00007812500000026201
v 1.179523695422107 0.20646006332191458 0.00007812500000059508
v 1.2912019660340717 0.3001594635495417 1.0000781250000006
v 1.2912019660340721 0.3001594635495417 0.00007812500000076161
v 1.2910160890585414 0.3427590580282449 0.00007812500000081712
v 1.291016089058541 0.3427590580282449 1.0000781250000004
v 1.218202660941458 0.29984094197175515 1.0000781250000008
v 1.2180167839659282 0.34244053645045835 1.0000781250000008
v 1.2182026609414582 0.29984094197175515 0.00007812500000059508
v 1.2180167839659282 0.34244053645045835 0.00007812500000048406
vt 0.5 0.9609375
vt 0.5 0.96875
vt 1 0.96875
vt 1 0.9609375
vt 1 0.9296875
vt 1 0.9375
vt 0.5 0.9375
vt 0.5 0.9296875
vt 0.5 0.96875
vt 0.5 0.9609375
vt 1 0.9609375
vt 1 0.96875
vt 1 0.9375
vt 1 0.9296875
vt 0.5 0.9296875
vt 0.5 0.9375
vt 0.578125 0.8515625
vt 0.5 0.8515625
vt 0.5 0.875
vt 0.578125 0.875
vt 0.5 0.5078125
vt 0 0.5078125
vt 0 0.53125
vt 0.5 0.53125
vt 0.578125 0.8828125
vt 0.5 0.8828125
vt 0.5 0.90625
vt 0.578125 0.90625
vt 0.5 0.5390625
vt 0 0.5390625
vt 0 0.5625
vt 0.5 0.5625
vt 0 0.921875
vt 0 1
vt 0.5 1
vt 0.5 0.921875
vt 0.5 0.828125
vt 0.5 0.90625
vt 0 0.90625
vt 0 0.828125
vt 0.5078125 0.671875
vt 0.5 0.671875
vt 0.5 0.71875
vt 0.5078125 0.71875
vt 0.5 0.703125
vt 0 0.703125
vt 0 0.75
vt 0.5 0.75
vt 0.5078125 0.734375
vt 0.5 0.734375
vt 0.5 0.78125
vt 0.5078125 0.78125
vt 0.5 0.765625
vt 0 0.765625
vt 0 0.8125
vt 0.5 0.8125
vt 0.5390625 0.7890625
vt 0.5 0.7890625
vt 0.5 0.8125
vt 0.5390625 0.8125
vt 1 0.9765625
vt 0.5 0.9765625
vt 0.5 1
vt 1 1
vt 0.5390625 0.8203125
vt 0.5 0.8203125
vt 0.5 0.84375
vt 0.5390625 0.84375
vt 0.5 0.4765625
vt 0 0.4765625
vt 0 0.5
vt 0.5 0.5
vt 0 0.6484375
vt 0 0.6875
vt 0.5 0.6875
vt 0.5 0.6484375
vt 0.5 0.5859375
vt 0.5 0.625
vt 0 0.625
vt 0 0.5859375
vt 0.5 0.8515625
vt 0.578125 0.8515625
vt 0.578125 0.875
vt 0.5 0.875
vt 0 0.5390625
vt 0.5 0.5390625
vt 0.5 0.5625
vt 0 0.5625
vt 0.5 0.8828125
vt 0.578125 0.8828125
vt 0.578125 0.90625
vt 0.5 0.90625
vt 0 0.5078125
vt 0.5 0.5078125
vt 0.5 0.53125
vt 0 0.53125
vt 0 1
vt 0 0.921875
vt 0.5 0.921875
vt 0.5 1
vt 0.5 0.90625
vt 0.5 0.828125
vt 0 0.828125
vt 0 0.90625
vt 0.5 0.671875
vt 0.5078125 0.671875
vt 0.5078125 0.71875
vt 0.5 0.71875
vt 0 0.765625
vt 0.5 0.765625
vt 0.5 0.8125
vt 0 0.8125
vt 0.5 0.734375
vt 0.5078125 0.734375
vt 0.5078125 0.78125
vt 0.5 0.78125
vt 0 0.703125
vt 0.5 0.703125
vt 0.5 0.75
vt 0 0.75
vt 0.5 0.7890625
vt 0.5390625 0.7890625
vt 0.5390625 0.8125
vt 0.5 0.8125
vt 0 0.4765625
vt 0.5 0.4765625
vt 0.5 0.5
vt 0 0.5
vt 0.5 0.8203125
vt 0.5390625 0.8203125
vt 0.5390625 0.84375
vt 0.5 0.84375
vt 0.5 0.9765625
vt 1 0.9765625
vt 1 1
vt 0.5 1
vt 0 0.6875
vt 0 0.6484375
vt 0.5 0.6484375
vt 0.5 0.6875
vt 0.5 0.625
vt 0.5 0.5859375
vt 0 0.5859375
vt 0 0.625
vt 0.5 0.703125
vt 0 0.703125
vt 0 0.75
vt 0.5 0.75
vt 0.5078125 0.734375
vt 0.5 0.734375
vt 0.5 0.78125
vt 0.5078125 0.78125
vt 0.5 0.765625
vt 0 0.765625
vt 0 0.8125
vt 0.5 0.8125
vt 0.5078125 0.671875
vt 0.5 0.671875
vt 0.5 0.71875
vt 0.5078125 0.71875
vt 1 0.9609375
vt 0.5 0.9609375
vt 0.5 0.96875
vt 1 0.96875
vt 1 0.9375
vt 0.5 0.9375
vt 0.5 0.9296875
vt 1 0.9296875
vt 1 0.9765625
vt 0.5 0.9765625
vt 0.5 1
vt 1 1
vt 0.5390625 0.8203125
vt 0.5 0.8203125
vt 0.5 0.84375
vt 0.5390625 0.84375
vt 0.5 0.4765625
vt 0 0.4765625
vt 0 0.5
vt 0.5 0.5
vt 0.5390625 0.7890625
vt 0.5 0.7890625
vt 0.5 0.8125
vt 0.5390625 0.8125
vt 0.5 0.6484375
vt 0 0.6484375
vt 0 0.6875
vt 0.5 0.6875
vt 0.5 0.625
vt 0 0.625
vt 0 0.5859375
vt 0.5 0.5859375
vt 0.5 0.5078125
vt 0 0.5078125
vt 0 0.53125
vt 0.5 0.53125
vt 0.578125 0.8828125
vt 0.5 0.8828125
vt 0.5 0.90625
vt 0.578125 0.90625
vt 0.5 0.5390625
vt 0 0.5390625
vt 0 0.5625
vt 0.5 0.5625
vt 0.578125 0.8515625
vt 0.5 0.8515625
vt 0.5 0.875
vt 0.578125 0.875
vt 0.5 0.921875
vt 0 0.921875
vt 0 1
vt 0.5 1
vt 0.5 0.90625
vt 0 0.90625
vt 0 0.828125
vt 0.5 0.828125
vt 0 0.765625
vt 0.5 0.765625
vt 0.5 0.8125
vt 0 0.8125
vt 0.5 0.734375
vt 0.5078125 0.734375
vt 0.5078125 0.78125
vt 0.5 0.78125
vt 0 0.703125
vt 0.5 0.703125
vt 0.5 0.75
vt 0 0.75
vt 0.5 0.671875
vt 0.5078125 0.671875
vt 0.5078125 0.71875
vt 0.5 0.71875
vt 1 0.96875
vt 0.5 0.96875
vt 0.5 0.9609375
vt 1 0.9609375
vt 1 0.9296875
vt 0.5 0.9296875
vt 0.5 0.9375
vt 1 0.9375
vt 0 0.5390625
vt 0.5 0.5390625
vt 0.5 0.5625
vt 0 0.5625
vt 0.5 0.8828125
vt 0.578125 0.8828125
vt 0.578125 0.90625
vt 0.5 0.90625
vt 0 0.5078125
vt 0.5 0.5078125
vt 0.5 0.53125
vt 0 0.53125
vt 0.5 0.8515625
vt 0.578125 0.8515625
vt 0.578125 0.875
vt 0.5 0.875
vt 0.5 1
vt 0 1
vt 0 0.921875
vt 0.5 0.921875
vt 0.5 0.828125
vt 0 0.828125
vt 0 0.90625
vt 0.5 0.90625
vt 0 0.4765625
vt 0.5 0.4765625
vt 0.5 0.5
vt 0 0.5
vt 0.5 0.8203125
vt 0.5390625 0.8203125
vt 0.5390625 0.84375
vt 0.5 0.84375
vt 0.5 0.9765625
vt 1 0.9765625
vt 1 1
vt 0.5 1
vt 0.5 0.7890625
vt 0.5390625 0.7890625
vt 0.5390625 0.8125
vt 0.5 0.8125
vt 0.5 0.6875
vt 0 0.6875
vt 0 0.6484375
vt 0.5 0.6484375
vt 0.5 0.5859375
vt 0 0.5859375
vt 0 0.625
vt 0.5 0.625
vn 0 1 0
vn 0 -1 0
vn 0 1 0
vn 0 -1 0
vn -0.707106781186546 0 0.707106781186549
vn -0.7071067811865477 0 -0.7071067811865475
vn 0.707106781186548 0 -0.7071067811865472
vn 0.7071067811865476 0 0.7071067811865476
vn 0 1 0
vn 0 -1 0
vn -0.7071067811865395 0 0.7071067811865556
vn -0.7071067811865475 0 -0.7071067811865477
vn 0.7071067811865556 0 -0.7071067811865395
vn 0.7071067811865477 0 0.7071067811865474
vn -0.7071067811865446 0 0.7071067811865507
vn -0.7071067811865476 0 -0.7071067811865476
vn 0.7071067811865529 0 -0.7071067811865421
vn 0.7071067811865476 0 0.7071067811865476
vn 0 1 0
vn 0 -1 0
vn -0.707106781186548 0 0.707106781186547
vn -0.7071067811865479 0 -0.7071067811865472
vn 0.7071067811865482 0 -0.7071067811865468
vn 0.7071067811865475 0 0.7071067811865476
vn 0 1 0
vn 0 -1 0
vn -0.7071067811865622 0 0.7071067811865328
vn -0.7071067811865477 0 -0.7071067811865474
vn 0.7071067811865341 0 -0.7071067811865609
vn 0.7071067811865478 0 0.7071067811865474
vn -0.7071067811865499 0 0.7071067811865452
vn -0.7071067811865476 0 -0.7071067811865475
vn 0.7071067811865487 0 -0.7071067811865465
vn 0.7071067811865476 0 0.7071067811865475
vn 0 1 0
vn 0 -1 0
vn 1 0 2.2204460492503136e-16
vn 0 0 1
vn -1 0 -4.440892098500627e-16
vn 8.006416042969905e-15 0 -1
vn 0 1 0
vn 0 -1 0
vn 0.9999904807207347 -0.004363309284733126 2.2204249122042772e-16
vn 0 0 1
vn -0.9999904807207345 0.004363309284746156 -2.2204249122042768e-16
vn -7.490480199844649e-16 2.609450503069233e-15 -1
vn 0.0043633092847473656 0.9999904807207345 1.9376985725949002e-18
vn -0.004363309284747339 -0.9999904807207345 -9.68849286297444e-19
vn 0.9999904807207347 -0.004363309284744215 2.2204249122042772e-16
vn -1.5047491658709646e-15 -5.600674621435501e-15 1
vn -0.9999904807207347 0.004363309284741411 -3.3306373683064156e-16
vn 1.4986326931039375e-15 4.198891217266138e-15 -1
vn 0.004363309284746533 0.9999904807207346 0
vn -0.004363309284746527 -0.9999904807207346 -9.688492862972637e-19
vn 1 0 0
vn -2.1350442781252627e-14 0 1
vn -1 0 -4.440892098500627e-16
vn 2.668805347656635e-15 0 -1
vn 0 1 0
vn 0 -1 0
vn 0.9999904807207345 0.004363309284747018 2.2204249122042763e-16
vn 0 0 1
vn -0.9999904807207345 -0.004363309284747018 -4.4408498244085506e-16
vn 2.923867713003539e-15 8.423618415500164e-15 -1
vn -0.00436330928474652 0.9999904807207346 -1.9376985725945243e-18
vn 0.004363309284746527 -0.9999904807207346 9.688492862972635e-19
vn 0.9999904807207346 0.004363309284759187 4.4408498244085535e-16
vn 3.0189350209307665e-15 5.225536960154232e-15 1
vn -0.9999904807207347 -0.00436330928473834 -2.2204249122042765e-16
vn 2.2926299419391905e-15 -2.596178595037767e-15 -1
vn -0.004363309284747406 0.9999904807207345 0
vn 0.0043633092847473525 -0.9999904807207345 1.937698572594894e-18
usemtl m_06a18062-e176-5b41-ed8d-84353ff011e9
f 1/1/1 2/2/1 3/3/1 4/4/1
f 5/5/2 6/6/2 7/7/2 8/8/2
f 9/9/3 10/10/3 11/11/3 12/12/3
f 13/13/4 14/14/4 15/15/4 16/16/4
f 17/17/5 18/18/5 19/19/5 20/20/5
f 21/21/6 17/22/6 20/23/6 22/24/6
f 23/25/7 21/26/7 22/27/7 24/28/7
f 18/29/8 23/30/8 24/31/8 19/32/8
f 24/33/9 22/34/9 20/35/9 19/36/9
f 18/37/10 17/38/10 21/39/10 23/40/10
f 6/41/11 5/42/11 4/43/11 3/44/11
f 7/45/12 6/46/12 3/47/12 2/48/12
f 8/49/13 7/50/13 2/51/13 1/52/13
f 5/53/14 8/54/14 1/55/14 4/56/14
f 25/57/15 26/58/15 27/59/15 28/60/15
f 29/61/16 25/62/16 28/63/16 30/64/16
f 31/65/17 29/66/17 30/67/17 32/68/17
f 26/69/18 31/70/18 32/71/18 27/72/18
f 32/73/19 30/74/19 28/75/19 27/76/19
f 26/77/20 25/78/20 29/79/20 31/80/20
f 33/81/21 34/82/21 35/83/21 36/84/21
f 37/85/22 33/86/22 36/87/22 38/88/22
f 39/89/23 37/90/23 38/91/23 40/92/23
f 34/93/24 39/94/24 40/95/24 35/96/24
f 40/97/25 38/98/25 36/99/25 35/100/25
f 34/101/26 33/102/26 37/103/26 39/104/26
f 14/105/27 13/106/27 12/107/27 11/108/27
f 15/109/28 14/110/28 11/111/28 10/112/28
f 16/113/29 15/114/29 10/115/29 9/116/29
f 13/117/30 16/118/30 9/119/30 12/120/30
f 41/121/31 42/122/31 43/123/31 44/124/31
f 45/125/32 41/126/32 44/127/32 46/128/32
f 47/129/33 45/130/33 46/131/33 48/132/33
f 42/133/34 47/134/34 48/135/34 43/136/34
f 48/137/35 46/138/35 44/139/35 43/140/35
f 42/141/36 41/142/36 45/143/36 47/144/36
f 49/145/37 50/146/37 51/147/37 52/148/37
f 53/149/38 49/150/38 52/151/38 54/152/38
f 55/153/39 53/154/39 54/155/39 56/156/39
f 50/157/40 55/158/40 56/159/40 51/160/40
f 56/161/41 54/162/41 52/163/41 51/164/41
f 50/165/42 49/166/42 53/167/42 55/168/42
f 57/169/43 58/170/43 59/171/43 60/172/43
f 61/173/44 57/174/44 60/175/44 62/176/44
f 63/177/45 61/178/45 62/179/45 64/180/45
f 58/181/46 63/182/46 64/183/46 59/184/46
f 64/185/47 62/186/47 60/187/47 59/188/47
f 58/189/48 57/190/48 61/191/48 63/192/48
f 65/193/49 66/194/49 67/195/49 68/196/49
f 69/197/50 65/198/50 68/199/50 70/200/50
f 71/201/51 69/202/51 70/203/51 72/204/51
f 66/205/52 71/206/52 72/207/52 67/208/52
f 72/209/53 70/210/53 68/211/53 67/212/53
f 66/213/54 65/214/54 69/215/54 71/216/54
f 73/217/55 74/218/55 75/219/55 76/220/55
f 77/221/56 73/222/56 76/223/56 78/224/56
f 79/225/57 77/226/57 78/227/57 80/228/57
f 74/229/58 79/230/58 80/231/58 75/232/58
f 80/233/59 78/234/59 76/235/59 75/236/59
f 74/237/60 73/238/60 77/239/60 79/240/60
f 81/241/61 82/242/61 83/243/61 84/244/61
f 85/245/62 81/246/62 84/247/62 86/248/62
f 87/249/63 85/250/63 86/251/63 88/252/63
f 82/253/64 87/254/64 88/255/64 83/256/64
f 88/257/65 86/258/65 84/259/65 83/260/65
f 82/261/66 81/262/66 85/263/66 87/264/66
f 89/265/67 90/266/67 91/267/67 92/268/67
f 93/269/68 89/270/68 92/271/68 94/272/68
f 95/273/69 93/274/69 94/275/69 96/276/69
f 90/277/70 95/278/70 96/279/70 91/280/70
f 96/281/71 94/282/71 92/283/71 91/284/71
f 90/285/72 89/286/72 93/287/72 95/288/72