# Made in Blockbench 4.8.3
mtllib cross_d1_xo.mtl

o cube
v 0.4679295587504745 0.30000000000000004 1.5490698964660519
v 0.48263737979915455 0.30000000000000004 1.5343620754173717
v -0.5349334725021118 0.30000000000000004 0.5167912231161056
v -0.5496412935507919 0.30000000000000004 0.5314990441647858
v -0.5496412935507919 0.20625000000000004 0.5314990441647858
v -0.5349334725021118 0.20625000000000004 0.5167912231161056
v 0.48263737979915455 0.20625000000000004 1.5343620754173717
v 0.4679295587504745 0.20625000000000004 1.5490698964660519
v 1.5352188566039198 0.30000000000000004 0.4817805986126069
v 1.5499266776526 0.30000000000000004 0.46707277756392673
v 0.5323558253513334 0.30000000000000004 -0.5504980747373395
v 0.5176480043026532 0.30000000000000004 -0.5357902536886593
v 0.5176480043026532 0.20625000000000004 -0.5357902536886593
v 0.5323558253513334 0.20625000000000004 -0.5504980747373395
v 1.5499266776526 0.20625000000000004 0.46707277756392673
v 1.5352188566039198 0.20625000000000004 0.4817805986126069
v -0.48925437443746084 0.16718750000000004 0.4711121250514547
v -0.5953203916154428 0.16718750000000004 0.5771781422294366
v -0.5953203916154428 0.2067875 0.5771781422294366
v -0.48925437443746084 0.2067875 0.4711121250514547
v 0.5283164778638056 0.16718750000000004 1.4886829773527208
v 0.5283164778638056 0.2067875 1.4886829773527208
v 0.4222504606858235 0.16718750000000004 1.5947489945307032
v 0.4222504606858235 0.2067875 1.5947489945307032
v -0.516477985513143 0.30000000000000004 0.4983357361271368
v -0.5680967805397608 0.30000000000000004 0.5499545311537548
v -0.5680967805397608 0.3426 0.5499545311537548
v -0.516477985513143 0.3426 0.4983357361271368
v 0.5010928667881236 0.30000000000000004 1.515906588428403
v 0.5010928667881236 0.3426 1.515906588428403
v 0.44947407176150556 0.30000000000000004 1.567525383455021
v 0.44947407176150556 0.3426 1.567525383455021
v 0.5780349234159843 0.16718750000000004 -0.5961771728019905
v 0.47196890623800225 0.16718750000000004 -0.4901111556240084
v 0.47196890623800225 0.2067875 -0.4901111556240084
v 0.5780349234159843 0.2067875 -0.5961771728019905
v 1.5956057757172504 0.16718750000000004 0.42139367949927575
v 1.5956057757172504 0.2067875 0.42139367949927575
v 1.4895397585392685 0.16718750000000004 0.5274596966772578
v 1.4895397585392685 0.2067875 0.5274596966772578
v 0.5508113123403022 0.30000000000000004 -0.5689535617263084
v 0.4991925173136843 0.30000000000000004 -0.5173347666996905
v 0.4991925173136843 0.3426 -0.5173347666996905
v 0.5508113123403022 0.3426 -0.5689535617263084
v 1.5683821646415685 0.30000000000000004 0.4486172905749578
v 1.5683821646415685 0.3426 0.4486172905749578
v 1.5167633696149503 0.30000000000000004 0.5002360856015757
v 1.5167633696149503 0.3426 0.5002360856015757
v 1 0.20625000000000004 1.2442875
v 0 0.20625000000000004 1.2442875
v 0 0.30000000000000004 1.2442875
v 1 0.30000000000000004 1.2442875
v 1 0.20625000000000004 1.2650875
v 1 0.30000000000000004 1.2650875
v 0 0.20625000000000004 1.2650875
v 0 0.30000000000000004 1.2650875
v 1 0.29984094197175515 1.2182807859414582
v 0 0.29984094197175515 1.2182807859414582
v 0 0.34244053645045835 1.218094908965928
v 1 0.34244053645045835 1.218094908965928
v 1 0.3001594635495417 1.2912800910340718
v 1 0.3427590580282449 1.2910942140585417
v 0 0.3001594635495417 1.2912800910340718
v 0 0.3427590580282449 1.2910942140585417
v 1 0.1668604402853735 1.1797746074697828
v 0 0.1668604402853735 1.1797746074697828
v 0 0.20646006332191458 1.179601820422107
v 1 0.20646006332191458 1.179601820422107
v 1 0.16751493667808548 1.3297731795778929
v 1 0.20711455971462656 1.3296003925302171
v 0 0.16751493667808548 1.3297731795778929
v 0 0.20711455971462656 1.3296003925302171
v 1 0.20625000000000004 -0.2650875
v 0 0.20625000000000004 -0.2650875
v 0 0.30000000000000004 -0.2650875
v 1 0.30000000000000004 -0.2650875
v 1 0.20625000000000004 -0.24428749999999994
v 1 0.30000000000000004 -0.24428749999999994
v 0 0.20625000000000004 -0.24428749999999994
v 0 0.30000000000000004 -0.24428749999999994
v 1 0.16751493667808548 -0.3297731795778931
v 0 0.16751493667808548 -0.3297731795778931
v 0 0.20711455971462656 -0.3296003925302171
v 1 0.20711455971462656 -0.3296003925302171
v 1 0.1668604402853735 -0.1797746074697829
v 1 0.20646006332191458 -0.17960182042210693
v 0 0.1668604402853735 -0.1797746074697829
v 0 0.20646006332191458 -0.17960182042210693
v 1 0.3001594635495417 -0.2912800910340719
v 0 0.3001594635495417 -0.2912800910340719
v 0 0.3427590580282449 -0.2910942140585417
v 1 0.3427590580282449 -0.2910942140585417
v 1 0.29984094197175515 -0.21828078594145833
v 1 0.34244053645045835 -0.2180949089659281
v 0 0.29984094197175515 -0.21828078594145833
v 0 0.34244053645045835 -0.2180949089659281
vt 0.5 0.9609375
vt 0.5 0.96875
vt 1 0.96875
vt 1 0.9609375
vt 1 0.9296875
vt 1 0.9375
vt 0.5 0.9375
vt 0.5 0.9296875
vt 0.5 0.96875
vt 0.5 0.9609375
vt 1 0.9609375
vt 1 0.96875
vt 1 0.9375
vt 1 0.9296875
vt 0.5 0.9296875
vt 0.5 0.9375
vt 0.578125 0.8515625
vt 0.5 0.8515625
vt 0.5 0.875
vt 0.578125 0.875
vt 0.5 0.5078125
vt 0 0.5078125
vt 0 0.53125
vt 0.5 0.53125
vt 0.578125 0.8828125
vt 0.5 0.8828125
vt 0.5 0.90625
vt 0.578125 0.90625
vt 0.5 0.5390625
vt 0 0.5390625
vt 0 0.5625
vt 0.5 0.5625
vt 0 0.921875
vt 0 1
vt 0.5 1
vt 0.5 0.921875
vt 0.5 0.828125
vt 0.5 0.90625
vt 0 0.90625
vt 0 0.828125
vt 0.5078125 0.671875
vt 0.5 0.671875
vt 0.5 0.71875
vt 0.5078125 0.71875
vt 0.5 0.703125
vt 0 0.703125
vt 0 0.75
vt 0.5 0.75
vt 0.5078125 0.734375
vt 0.5 0.734375
vt 0.5 0.78125
vt 0.5078125 0.78125
vt 0.5 0.765625
vt 0 0.765625
vt 0 0.8125
vt 0.5 0.8125
vt 0.5390625 0.7890625
vt 0.5 0.7890625
vt 0.5 0.8125
vt 0.5390625 0.8125
vt 1 0.9765625
vt 0.5 0.9765625
vt 0.5 1
vt 1 1
vt 0.5390625 0.8203125
vt 0.5 0.8203125
vt 0.5 0.84375
vt 0.5390625 0.84375
vt 0.5 0.4765625
vt 0 0.4765625
vt 0 0.5
vt 0.5 0.5
vt 0 0.6484375
vt 0 0.6875
vt 0.5 0.6875
vt 0.5 0.6484375
vt 0.5 0.5859375
vt 0.5 0.625
vt 0 0.625
vt 0 0.5859375
vt 0.5 0.8515625
vt 0.578125 0.8515625
vt 0.578125 0.875
vt 0.5 0.875
vt 0 0.5390625
vt 0.5 0.5390625
vt 0.5 0.5625
vt 0 0.5625
vt 0.5 0.8828125
vt 0.578125 0.8828125
vt 0.578125 0.90625
vt 0.5 0.90625
vt 0 0.5078125
vt 0.5 0.5078125
vt 0.5 0.53125
vt 0 0.53125
vt 0 1
vt 0 0.921875
vt 0.5 0.921875
vt 0.5 1
vt 0.5 0.90625
vt 0.5 0.828125
vt 0 0.828125
vt 0 0.90625
vt 0.5 0.671875
vt 0.5078125 0.671875
vt 0.5078125 0.71875
vt 0.5 0.71875
vt 0 0.765625
vt 0.5 0.765625
vt 0.5 0.8125
vt 0 0.8125
vt 0.5 0.734375
vt 0.5078125 0.734375
vt 0.5078125 0.78125
vt 0.5 0.78125
vt 0 0.703125
vt 0.5 0.703125
vt 0.5 0.75
vt 0 0.75
vt 0.5 0.7890625
vt 0.5390625 0.7890625
vt 0.5390625 0.8125
vt 0.5 0.8125
vt 0 0.4765625
vt 0.5 0.4765625
vt 0.5 0.5
vt 0 0.5
vt 0.5 0.8203125
vt 0.5390625 0.8203125
vt 0.5390625 0.84375
vt 0.5 0.84375
vt 0.5 0.9765625
vt 1 0.9765625
vt 1 1
vt 0.5 1
vt 0 0.6875
vt 0 0.6484375
vt 0.5 0.6484375
vt 0.5 0.6875
vt 0.5 0.625
vt 0.5 0.5859375
vt 0 0.5859375
vt 0 0.625
vt 0.5 0.703125
vt 0 0.703125
vt 0 0.75
vt 0.5 0.75
vt 0.5078125 0.734375
vt 0.5 0.734375
vt 0.5 0.78125
vt 0.5078125 0.78125
vt 0.5 0.765625
vt 0 0.765625
vt 0 0.8125
vt 0.5 0.8125
vt 0.5078125 0.671875
vt 0.5 0.671875
vt 0.5 0.71875
vt 0.5078125 0.71875
vt 1 0.9609375
vt 0.5 0.9609375
vt 0.5 0.96875
vt 1 0.96875
vt 1 0.9375
vt 0.5 0.9375
vt 0.5 0.9296875
vt 1 0.9296875
vt 1 0.9765625
vt 0.5 0.9765625
vt 0.5 1
vt 1 1
vt 0.5390625 0.8203125
vt 0.5 0.8203125
vt 0.5 0.84375
vt 0.5390625 0.84375
vt 0.5 0.4765625
vt 0 0.4765625
vt 0 0.5
vt 0.5 0.5
vt 0.5390625 0.7890625
vt 0.5 0.7890625
vt 0.5 0.8125
vt 0.5390625 0.8125
vt 0.5 0.6484375
vt 0 0.6484375
vt 0 0.6875
vt 0.5 0.6875
vt 0.5 0.625
vt 0 0.625
vt 0 0.5859375
vt 0.5 0.5859375
vt 0.5 0.5078125
vt 0 0.5078125
vt 0 0.53125
vt 0.5 0.53125
vt 0.578125 0.8828125
vt 0.5 0.8828125
vt 0.5 0.90625
vt 0.578125 0.90625
vt 0.5 0.5390625
vt 0 0.5390625
vt 0 0.5625
vt 0.5 0.5625
vt 0.578125 0.8515625
vt 0.5 0.8515625
vt 0.5 0.875
vt 0.578125 0.875
vt 0.5 0.921875
vt 0 0.921875
vt 0 1
vt 0.5 1
vt 0.5 0.90625
vt 0 0.90625
vt 0 0.828125
vt 0.5 0.828125
vt 0 0.765625
vt 0.5 0.765625
vt 0.5 0.8125
vt 0 0.8125
vt 0.5 0.734375
vt 0.5078125 0.734375
vt 0.5078125 0.78125
vt 0.5 0.78125
vt 0 0.703125
vt 0.5 0.703125
vt 0.5 0.75
vt 0 0.75
vt 0.5 0.671875
vt 0.5078125 0.671875
vt 0.5078125 0.71875
vt 0.5 0.71875
vt 1 0.96875
vt 0.5 0.96875
vt 0.5 0.9609375
vt 1 0.9609375
vt 1 0.9296875
vt 0.5 0.9296875
vt 0.5 0.9375
vt 1 0.9375
vt 0 0.5390625
vt 0.5 0.5390625
vt 0.5 0.5625
vt 0 0.5625
vt 0.5 0.8828125
vt 0.578125 0.8828125
vt 0.578125 0.90625
vt 0.5 0.90625
vt 0 0.5078125
vt 0.5 0.5078125
vt 0.5 0.53125
vt 0 0.53125
vt 0.5 0.8515625
vt 0.578125 0.8515625
vt 0.578125 0.875
vt 0.5 0.875
vt 0.5 1
vt 0 1
vt 0 0.921875
vt 0.5 0.921875
vt 0.5 0.828125
vt 0 0.828125
vt 0 0.90625
vt 0.5 0.90625
vt 0 0.4765625
vt 0.5 0.4765625
vt 0.5 0.5
vt 0 0.5
vt 0.5 0.8203125
vt 0.5390625 0.8203125
vt 0.5390625 0.84375
vt 0.5 0.84375
vt 0.5 0.9765625
vt 1 0.9765625
vt 1 1
vt 0.5 1
vt 0.5 0.7890625
vt 0.5390625 0.7890625
vt 0.5390625 0.8125
vt 0.5 0.8125
vt 0.5 0.6875
vt 0 0.6875
vt 0 0.6484375
vt 0.5 0.6484375
vt 0.5 0.5859375
vt 0 0.5859375
vt 0 0.625
vt 0.5 0.625
vn 0 1 0
vn 0 -1 0
vn 0 1 0
vn 0 -1 0
vn -0.7071067811865474 0 -0.7071067811865478
vn 0.7071067811865475 0 -0.7071067811865477
vn 0.7071067811865482 0 0.7071067811865468
vn -0.7071067811865476 0 0.7071067811865475
vn 0 1 0
vn 0 -1 0
vn -0.7071067811865476 0 -0.7071067811865476
vn 0.7071067811865475 0 -0.7071067811865477
vn 0.7071067811865502 0 0.7071067811865449
vn -0.7071067811865474 0 0.7071067811865477
vn -0.7071067811865491 0 -0.707106781186546
vn 0.7071067811865475 0 -0.7071067811865477
vn 0.707106781186546 0 0.7071067811865491
vn -0.7071067811865475 0 0.7071067811865476
vn 0 1 0
vn 0 -1 0
vn -0.7071067811865476 0 -0.7071067811865476
vn 0.7071067811865476 0 -0.7071067811865476
vn 0.7071067811865479 0 0.7071067811865471
vn -0.7071067811865476 0 0.7071067811865476
vn 0 1 0
vn 0 -1 0
vn -0.7071067811865476 0 -0.7071067811865476
vn 0.7071067811865474 0 -0.7071067811865477
vn 0.7071067811865476 0 0.7071067811865476
vn -0.7071067811865474 0 0.7071067811865477
vn -0.7071067811865476 0 -0.7071067811865476
vn 0.7071067811865475 0 -0.7071067811865476
vn 0.7071067811865452 0 0.7071067811865498
vn -0.7071067811865476 0 0.7071067811865476
vn 0 1 0
vn 0 -1 0
vn 0 0 -1
vn 1 0 0
vn 0 0 1
vn -1 0 0
vn 0 1 0
vn 0 -1 0
vn 0 -0.004363309284743551 -0.9999904807207347
vn 1 0 0
vn 0 0.004363309284743551 0.9999904807207347
vn -1 0 0
vn 0 0.9999904807207345 -0.0043633092847473525
vn 0 -0.9999904807207345 0.0043633092847473525
vn 0 -0.004363309284741411 -0.9999904807207347
vn 1 0 0
vn 0 0.004363309284741411 0.9999904807207347
vn -1 0 0
vn 0 0.9999904807207346 -0.004363309284746527
vn 0 -0.9999904807207346 0.004363309284746527
vn 0 0 -1
vn 1 0 0
vn 0 0 1
vn -1 0 0
vn 0 1 0
vn 0 -1 0
vn 0 0.004363309284747018 -0.9999904807207345
vn 1 0 0
vn 0 -0.004363309284747018 0.9999904807207345
vn -1 0 0
vn 0 0.9999904807207346 0.004363309284746523
vn 0 -0.9999904807207346 -0.004363309284746523
vn 0 0.0043633092847461565 -0.9999904807207345
vn 1 0 0
vn 0 -0.004363309284747459 0.9999904807207345
vn -1 0 0
vn 0 0.9999904807207345 0.004363309284747355
vn 0 -0.9999904807207345 -0.004363309284747359
usemtl m_5d104bb4-67b7-bb8c-cb9c-93fd7d4fb8f8
f 1/1/1 2/2/1 3/3/1 4/4/1
f 5/5/2 6/6/2 7/7/2 8/8/2
f 9/9/3 10/10/3 11/11/3 12/12/3
f 13/13/4 14/14/4 15/15/4 16/16/4
f 17/17/5 18/18/5 19/19/5 20/20/5
f 21/21/6 17/22/6 20/23/6 22/24/6
f 23/25/7 21/26/7 22/27/7 24/28/7
f 18/29/8 23/30/8 24/31/8 19/32/8
f 24/33/9 22/34/9 20/35/9 19/36/9
f 18/37/10 17/38/10 21/39/10 23/40/10
f 6/41/11 5/42/11 4/43/11 3/44/11
f 7/45/12 6/46/12 3/47/12 2/48/12
f 8/49/13 7/50/13 2/51/13 1/52/13
f 5/53/14 8/54/14 1/55/14 4/56/14
f 25/57/15 26/58/15 27/59/15 28/60/15
f 29/61/16 25/62/16 28/63/16 30/64/16
f 31/65/17 29/66/17 30/67/17 32/68/17
f 26/69/18 31/70/18 32/71/18 27/72/18
f 32/73/19 30/74/19 28/75/19 27/76/19
f 26/77/20 25/78/20 29/79/20 31/80/20
f 33/81/21 34/82/21 35/83/21 36/84/21
f 37/85/22 33/86/22 36/87/22 38/88/22
f 39/89/23 37/90/23 38/91/23 40/92/23
f 34/93/24 39/94/24 40/95/24 35/96/24
f 40/97/25 38/98/25 36/99/25 35/100/25
f 34/101/26 33/102/26 37/103/26 39/104/26
f 14/105/27 13/106/27 12/107/27 11/108/27
f 15/109/28 14/110/28 11/111/28 10/112/28
f 16/113/29 15/114/29 10/115/29 9/116/29
f 13/117/30 16/118/30 9/119/30 12/120/30
f 41/121/31 42/122/31 43/123/31 44/124/31
f 45/125/32 41/126/32 44/127/32 46/128/32
f 47/129/33 45/130/33 46/131/33 48/132/33
f 42/133/34 47/134/34 48/135/34 43/136/34
f 48/137/35 46/138/35 44/139/35 43/140/35
f 42/141/36 41/142/36 45/143/36 47/144/36
f 49/145/37 50/146/37 51/147/37 52/148/37
f 53/149/38 49/150/38 52/151/38 54/152/38
f 55/153/39 53/154/39 54/155/39 56/156/39
f 50/157/40 55/158/40 56/159/40 51/160/40
f 56/161/41 54/162/41 52/163/41 51/164/41
f 50/165/42 49/166/42 53/167/42 55/168/42
f 57/169/43 58/170/43 59/171/43 60/172/43
f 61/173/44 57/174/44 60/175/44 62/176/44
f 63/177/45 61/178/45 62/179/45 64/180/45
f 58/181/46 63/182/46 64/183/46 59/184/46
f 64/185/47 62/186/47 60/187/47 59/188/47
f 58/189/48 57/190/48 61/191/48 63/192/48
f 65/193/49 66/194/49 67/195/49 68/196/49
f 69/197/50 65/198/50 68/199/50 70/200/50
f 71/201/51 69/202/51 70/203/51 72/204/51
f 66/205/52 71/206/52 72/207/52 67/208/52
f 72/209/53 70/210/53 68/211/53 67/212/53
f 66/213/54 65/214/54 69/215/54 71/216/54
f 73/217/55 74/218/55 75/219/55 76/220/55
f 77/221/56 73/222/56 76/223/56 78/224/56
f 79/225/57 77/226/57 78/227/57 80/228/57
f 74/229/58 79/230/58 80/231/58 75/232/58
f 80/233/59 78/234/59 76/235/59 75/236/59
f 74/237/60 73/238/60 77/239/60 79/240/60
f 81/241/61 82/242/61 83/243/61 84/244/61
f 85/245/62 81/246/62 84/247/62 86/248/62
f 87/249/63 85/250/63 86/251/63 88/252/63
f 82/253/64 87/254/64 88/255/64 83/256/64
f 88/257/65 86/258/65 84/259/65 83/260/65
f 82/261/66 81/262/66 85/263/66 87/264/66
f 89/265/67 90/266/67 91/267/67 92/268/67
f 93/269/68 89/270/68 92/271/68 94/272/68
f 95/273/69 93/274/69 94/275/69 96/276/69
f 90/277/70 95/278/70 96/279/70 91/280/70
f 96/281/71 94/282/71 92/283/71 91/284/71
f 90/285/72 89/286/72 93/287/72 95/288/72