# Made in Blockbench 4.9.4
mtllib wuling_large_back_door.mtl

o cube
v 0.5240064655172412 -1.0734552769766492 0.1236158668146842
v 0.5240064655172412 -1.1298376143837 -0.05520606145060675
v 0.5240064655172412 -1.311884514663706 0.19879231669075245
v 0.5240064655172412 -1.3682668520707568 0.019970388425461505
v -0.5240064655172416 -1.0734552769766492 0.1236158668146842
v -0.5240064655172416 -1.1298376143837 -0.05520606145060675
v -0.5240064655172416 -1.311884514663706 0.19879231669075245
v -0.5240064655172416 -1.3682668520707568 0.019970388425461505
v 1.0240064655172412 0.03203162605453273 0.059337240089088555
v 1.0240064655172412 0.032031626054532816 -0.06566275991090904
v 1.0240064655172412 -0.21796837394546714 0.059337240089089
v 1.0240064655172412 -0.21796837394546734 -0.06566275991090952
v -1.0240064655172416 0.03203162605453273 0.059337240089088555
v -1.0240064655172416 0.032031626054532816 -0.06566275991090904
v -1.0240064655172416 -0.21796837394546714 0.059337240089089
v -1.0240064655172416 -0.21796837394546734 -0.06566275991090952
v 1.0240064655172412 -0.9054683739454674 0.05933724008908889
v 1.0240064655172412 -0.9054683739454674 -0.06566275991090939
v 1.0240064655172412 -1.9054683739454674 0.05933724008908847
v 1.0240064655172412 -1.9054683739454672 -0.06566275991090964
v -1.0240064655172416 -0.9054683739454674 0.05933724008908889
v -1.0240064655172416 -0.9054683739454674 -0.06566275991090939
v -1.0240064655172416 -1.9054683739454674 0.05933724008908847
v -1.0240064655172416 -1.9054683739454672 -0.06566275991090964
v 1.0240064655172412 -0.21796837394546714 0.059337240089089
v 1.0240064655172412 -0.21796837394546734 -0.06566275991090952
v 1.0240064655172412 -0.9054683739454674 0.05933724008908889
v 1.0240064655172412 -0.9054683739454674 -0.06566275991090939
v 0.9134935344827584 -0.21796837394546714 0.059337240089089
v 0.9134935344827584 -0.21796837394546734 -0.06566275991090952
v 0.9134935344827584 -0.9054683739454674 0.05933724008908889
v 0.9134935344827584 -0.9054683739454674 -0.06566275991090939
v -0.9134935344827584 -0.21796837394546714 0.059337240089089
v -0.9134935344827584 -0.21796837394546734 -0.06566275991090952
v -0.9134935344827584 -0.9054683739454674 0.05933724008908889
v -0.9134935344827584 -0.9054683739454674 -0.06566275991090939
v -1.0240064655172412 -0.21796837394546714 0.059337240089089
v -1.0240064655172412 -0.21796837394546734 -0.06566275991090952
v -1.0240064655172412 -0.9054683739454674 0.05933724008908889
v -1.0240064655172412 -0.9054683739454674 -0.06566275991090939
vt 0.15234375 0.638671875
vt 0.15234375 0.646484375
vt 0.146484375 0.646484375
vt 0.146484375 0.638671875
vt 0.189453125 0.638671875
vt 0.189453125 0.646484375
vt 0.18359375 0.646484375
vt 0.18359375 0.638671875
vt 0.15234375 0.65234375
vt 0.15234375 0.646484375
vt 0.18359375 0.646484375
vt 0.18359375 0.65234375
vt 0.18359375 0.646484375
vt 0.18359375 0.65234375
vt 0.21484375 0.65234375
vt 0.21484375 0.646484375
vt 0.220703125 0.638671875
vt 0.220703125 0.646484375
vt 0.189453125 0.646484375
vt 0.189453125 0.638671875
vt 0.18359375 0.638671875
vt 0.18359375 0.646484375
vt 0.15234375 0.646484375
vt 0.15234375 0.638671875
vt 0.138671875 0.609375
vt 0.138671875 0.6171875
vt 0.134765625 0.6171875
vt 0.134765625 0.609375
vt 0.205078125 0.609375
vt 0.205078125 0.6171875
vt 0.201171875 0.6171875
vt 0.201171875 0.609375
vt 0.138671875 0.62109375
vt 0.138671875 0.6171875
vt 0.201171875 0.6171875
vt 0.201171875 0.62109375
vt 0.201171875 0.6171875
vt 0.201171875 0.62109375
vt 0.263671875 0.62109375
vt 0.263671875 0.6171875
vt 0.267578125 0.609375
vt 0.267578125 0.6171875
vt 0.205078125 0.6171875
vt 0.205078125 0.609375
vt 0.201171875 0.609375
vt 0.201171875 0.6171875
vt 0.138671875 0.6171875
vt 0.138671875 0.609375
vt 0.326171875 0.529296875
vt 0.326171875 0.560546875
vt 0.322265625 0.560546875
vt 0.322265625 0.529296875
vt 0.392578125 0.529296875
vt 0.392578125 0.560546875
vt 0.388671875 0.560546875
vt 0.388671875 0.529296875
vt 0.326171875 0.564453125
vt 0.326171875 0.560546875
vt 0.388671875 0.560546875
vt 0.388671875 0.564453125
vt 0.388671875 0.560546875
vt 0.388671875 0.564453125
vt 0.451171875 0.564453125
vt 0.451171875 0.560546875
vt 0.455078125 0.529296875
vt 0.455078125 0.560546875
vt 0.392578125 0.560546875
vt 0.392578125 0.529296875
vt 0.388671875 0.529296875
vt 0.388671875 0.560546875
vt 0.326171875 0.560546875
vt 0.326171875 0.529296875
vt 0.10546875 0.60546875
vt 0.10546875 0.626953125
vt 0.1015625 0.626953125
vt 0.1015625 0.60546875
vt 0.111328125 0.60546875
vt 0.111328125 0.626953125
vt 0.107421875 0.626953125
vt 0.107421875 0.60546875
vt 0.10546875 0.630859375
vt 0.10546875 0.626953125
vt 0.107421875 0.626953125
vt 0.107421875 0.630859375
vt 0.107421875 0.626953125
vt 0.107421875 0.630859375
vt 0.109375 0.630859375
vt 0.109375 0.626953125
vt 0.11328125 0.60546875
vt 0.11328125 0.626953125
vt 0.111328125 0.626953125
vt 0.111328125 0.60546875
vt 0.107421875 0.60546875
vt 0.107421875 0.626953125
vt 0.10546875 0.626953125
vt 0.10546875 0.60546875
vt 0.248046875 0.662109375
vt 0.248046875 0.68359375
vt 0.244140625 0.68359375
vt 0.244140625 0.662109375
vt 0.25390625 0.662109375
vt 0.25390625 0.68359375
vt 0.25 0.68359375
vt 0.25 0.662109375
vt 0.248046875 0.6875
vt 0.248046875 0.68359375
vt 0.25 0.68359375
vt 0.25 0.6875
vt 0.25 0.68359375
vt 0.25 0.6875
vt 0.251953125 0.6875
vt 0.251953125 0.68359375
vt 0.255859375 0.662109375
vt 0.255859375 0.68359375
vt 0.25390625 0.68359375
vt 0.25390625 0.662109375
vt 0.25 0.662109375
vt 0.25 0.68359375
vt 0.248046875 0.68359375
vt 0.248046875 0.662109375
vn 1 0 0
vn -1 0 0
vn 0 0.9537169507482269 -0.30070579950427306
vn 0 -0.9537169507482269 0.30070579950427306
vn 0 0.30070579950427306 0.9537169507482269
vn 0 -0.30070579950427306 -0.9537169507482269
vn 1 0 0
vn -1 0 0
vn 0 1 6.661338147750939e-16
vn 0 -1 1.6653345369377348e-15
vn 0 1.776356839400251e-15 1
vn 0 1.8873791418627665e-15 -1
vn 1 0 0
vn -1 0 0
vn 0 1 0
vn 0 -1 -1.054711873393899e-15
vn 0 -3.885780586188049e-16 1
vn 0 2.7755575615628914e-16 -1
vn 1 0 0
vn -1 0 0
vn 0 1 -1.6098233857064774e-15
vn 0 -1 0
vn 0 -2.220446049250313e-16 1
vn 0 -2.220446049250313e-16 -1
vn 1 0 0
vn -1 0 0
vn 0 1 -1.6098233857064774e-15
vn 0 -1 0
vn 0 -2.220446049250313e-16 1
vn 0 -2.220446049250313e-16 -1
usemtl m_385bb753-a795-537e-9a7d-9664a172a6dd
f 4/1/1 2/2/1 1/3/1 3/4/1
f 7/5/2 5/6/2 6/7/2 8/8/2
f 1/9/3 2/10/3 6/11/3 5/12/3
f 4/13/4 3/14/4 7/15/4 8/16/4
f 3/17/5 1/18/5 5/19/5 7/20/5
f 8/21/6 6/22/6 2/23/6 4/24/6
f 12/25/7 10/26/7 9/27/7 11/28/7
f 15/29/8 13/30/8 14/31/8 16/32/8
f 9/33/9 10/34/9 14/35/9 13/36/9
f 12/37/10 11/38/10 15/39/10 16/40/10
f 11/41/11 9/42/11 13/43/11 15/44/11
f 16/45/12 14/46/12 10/47/12 12/48/12
f 20/49/13 18/50/13 17/51/13 19/52/13
f 23/53/14 21/54/14 22/55/14 24/56/14
f 17/57/15 18/58/15 22/59/15 21/60/15
f 20/61/16 19/62/16 23/63/16 24/64/16
f 19/65/17 17/66/17 21/67/17 23/68/17
f 24/69/18 22/70/18 18/71/18 20/72/18
f 28/73/19 26/74/19 25/75/19 27/76/19
f 31/77/20 29/78/20 30/79/20 32/80/20
f 25/81/21 26/82/21 30/83/21 29/84/21
f 28/85/22 27/86/22 31/87/22 32/88/22
f 27/89/23 25/90/23 29/91/23 31/92/23
f 32/93/24 30/94/24 26/95/24 28/96/24
f 36/97/25 34/98/25 33/99/25 35/100/25
f 39/101/26 37/102/26 38/103/26 40/104/26
f 33/105/27 34/106/27 38/107/27 37/108/27
f 36/109/28 35/110/28 39/111/28 40/112/28
f 35/113/29 33/114/29 37/115/29 39/116/29
f 40/117/30 38/118/30 34/119/30 36/120/30