# Made in Blockbench 4.9.4
mtllib wuling_front_door_right.mtl

o cube
v 0.22189525141126687 1.6257818618963338 0.07102919299873367
v 0.23619315648383754 1.6260313725769011 -0.030720844617747822
v 0.22338957581399743 1.5401699023370694 0.07102923830744912
v 0.2376874808865681 1.540419413017637 -0.030720799309032376
v -0.03244110170614167 1.6213424980420612 0.03527898801321894
v -0.018143196633571 1.621592008722629 -0.06647104960326256
v -0.03094677730341111 1.535730538482797 0.035279033321934605
v -0.01664887223084044 1.5359800491633648 -0.06647100429454689
v 0.49596003041850256 1.8643870605454005 0.21654681623047156
v 0.5189549580412987 1.8647883417129312 0.05290502823899956
v 0.5009665625415209 1.577555750781145 0.21654696803120466
v 0.523961490164317 1.5779570319486755 0.05290518003973288
v 0.05597670422269285 1.8567072851186666 0.1547015711095443
v 0.07897163184548894 1.8571085662861972 -0.008940216881927476
v 0.060983236345711234 1.569875975354411 0.15470172291027762
v 0.08397816396850732 1.5702772565219418 -0.00894006508119416
v 0.0625 1.5250419197504923 0.004620394679880402
v 0.0625 0.8375419197504921 0.00462039467988018
v 0.0625 1.525041919750492 1.3171203946798804
v 0.06250000000000089 0.8375419197504921 1.3171203946798804
v -0.109375 1.5250419197504923 0.00462039467988018
v -0.109375 0.8375419197504925 0.004620394679879958
v -0.10937500000000089 1.525041919750492 1.3171203946798804
v -0.10937499999999911 0.8375419197504921 1.3171203946798802
v -0.0813837616594828 1.41882699215298 0.1921828946798807
v -0.03799342326495836 1.1727481548690546 0.19218289467988092
v -0.0813837616594828 1.4188269921529795 1.3170578946798805
v -0.03799342326495836 1.1727481548690541 1.3170578946798803
v -0.20436162981688266 1.3971426759668224 0.1921828946798807
v -0.16097129142235822 1.1510638386828966 0.1921828946798807
v -0.20436162981688266 1.3971426759668222 1.3170578946798805
v -0.16097129142235822 1.1510638386828964 1.3170578946798803
v 0.125 1.462541919750492 0.9421203946798806
v 0.125 1.2750419197504923 0.9421203946798803
v 0.125 1.462541919750492 1.2546203946798804
v 0.125 1.275041919750492 1.2546203946798804
v 0.06250000000000089 1.462541919750492 0.9421203946798806
v 0.06250000000000089 1.275041919750492 0.9421203946798806
v 0.0625 1.462541919750492 1.2546203946798804
v 0.0625 1.275041919750492 1.2546203946798804
v 0.10937499999999911 1.0819858095020574 -0.07664696658207037
v 0.109375 0.9456282041394999 -0.18127783719294532
v 0.109375 0.9297954522498768 0.12169136849073903
v 0.109375 0.7934378468873193 0.017060497879863856
v -0.140625 1.0819858095020571 -0.07664696658207015
v -0.140625 0.9456282041394994 -0.1812778371929451
v -0.140625 0.9297954522498766 0.12169136849073903
v -0.140625 0.7934378468873191 0.017060497879863856
v 0.109375 0.9297954522498773 0.1216913684907377
v 0.10937500000000089 0.8781116429600802 -0.042228732419114845
v 0.109375 0.6466607324964975 0.21096340271856873
v 0.10937499999999911 0.5949769232067001 0.04704330180871619
v -0.140625 0.929795452249877 0.12169136849073814
v -0.140625 0.8781116429600802 -0.042228732419114845
v -0.1406250000000009 0.6466607324964972 0.21096340271856873
v -0.140625 0.5949769232067004 0.04704330180871641
v 0.109375 0.6466607324964977 0.21096340271856917
v 0.109375 0.6466607324964975 0.03908840271856828
v 0.109375 0.4122857324964979 0.21096340271856917
v 0.109375 0.41228573249649747 0.03908840271856828
v -0.1406250000000009 0.6466607324964972 0.21096340271856917
v -0.140625 0.6466607324964975 0.03908840271856828
v -0.1406250000000009 0.4122857324964977 0.21096340271856917
v -0.140625 0.41228573249649747 0.03908840271856828
v 0.0625 0.8375419197504923 0.06712039467988018
v 0.0625 0.4625419197504923 0.0671203946798804
v 0.06250000000000089 0.8375419197504921 1.3171203946798804
v 0.0625 0.4625419197504921 1.3171203946798802
v -0.109375 0.8375419197504923 0.06712039467987996
v -0.109375 0.4625419197504923 0.06712039467988018
v -0.10937499999999911 0.8375419197504921 1.3171203946798802
v -0.10937500000000089 0.4625419197504921 1.31712039467988
v 0.0625 1.7125419197504923 -0.1672546053201207
v 0.0625 1.0250419197504923 -0.1672546053201205
v 0.06249999999999911 1.7125419197504925 0.004620394679880402
v 0.0625 1.0250419197504923 0.004620394679880402
v -0.109375 1.712541919750492 -0.1672546053201207
v -0.10937500000000089 1.0250419197504923 -0.1672546053201205
v -0.10937500000000089 1.7125419197504923 0.00462039467988018
v -0.109375 1.0250419197504923 0.004620394679879958
v -0.007725818994476441 2.5152247806291115 0.4510195948588889
v 0.062499919394682024 1.7125419348051014 -0.1672544020976079
v 0.0013934311119463416 2.4109919541716964 0.5873771131378429
v 0.07161916950110392 1.6083091083476857 -0.030896883818653853
v -0.1789467785509551 2.500244839589263 0.4510196326925805
v -0.10872104016179662 1.697561993765253 -0.1672543642639157
v -0.1698275284445323 2.396012013131848 0.5873771509715349
v -0.09960179005537473 1.5933291673078374 -0.03089684598496234
v 0.06243750000000059 1.6499535314028442 0.7546203946798803
v 0.06243749999999881 1.4732652244538555 0.5779320877308916
v 0.0624374999999997 1.5616535721021738 0.8429203539805505
v 0.0624374999999997 1.3849652651531854 0.666232047031562
v -0.1093124999999997 1.649953531402844 0.7546203946798802
v -0.10931250000000059 1.4732652244538555 0.5779320877308917
v -0.1093124999999997 1.5616535721021738 0.8429203539805505
v -0.10931250000000059 1.3849652651531852 0.6662320470315619
v 0.008006928952731585 2.3354005378756453 1.1296203762191412
v 0.06794723050816387 1.650279756053769 1.1296203762191408
v 0.008006928952731585 2.3354005378756453 1.3171203762191412
v 0.06794723050816387 1.6502797560537692 1.3171203762191412
v -0.16864053737463358 2.3199458871314236 1.1296203762191412
v -0.1087002358192013 1.6348251053095468 1.1296203762191412
v -0.16864053737463358 2.3199458871314236 1.3171203762191412
v -0.1087002358192013 1.6348251053095468 1.317120376219141
v -0.0077256954423061686 2.51522529165385 0.4510187174572834
v 0.008006931911976878 2.335400538134546 0.4510187174572833
v -0.0077256954423061686 2.51522529165385 1.3171203762191412
v 0.00800693191197599 2.335400538134546 1.3171203762191412
v -0.18437316472891574 2.4997706406507274 0.4510187174572833
v -0.16864053737463358 2.319945887131424 0.45101871745728317
v -0.18437316472891574 2.499770640650727 1.3171203762191412
v -0.16864053737463358 2.3199458871314236 1.3171203762191412
v 0.06250000000000089 1.650041919750492 0.7546203946798806
v 0.06250000000000089 1.525041919750492 0.7546203946798805
v 0.0625 1.650041919750492 1.3171203946798804
v 0.0625 1.525041919750492 1.3171203946798804
v -0.109375 1.650041919750492 0.7546203946798805
v -0.109375 1.525041919750492 0.7546203946798805
v -0.10937500000000089 1.650041919750492 1.3171203946798804
v -0.10937500000000089 1.525041919750492 1.3171203946798804
vt 0.001953125 0.98046875
vt 0.001953125 0.982421875
vt 0 0.982421875
vt 0 0.98046875
vt 0.01171875 0.98046875
vt 0.01171875 0.982421875
vt 0.009765625 0.982421875
vt 0.009765625 0.98046875
vt 0.001953125 0.984375
vt 0.001953125 0.982421875
vt 0.009765625 0.982421875
vt 0.009765625 0.984375
vt 0.009765625 0.982421875
vt 0.009765625 0.984375
vt 0.017578125 0.984375
vt 0.017578125 0.982421875
vt 0.01953125 0.98046875
vt 0.01953125 0.982421875
vt 0.01171875 0.982421875
vt 0.01171875 0.98046875
vt 0.009765625 0.98046875
vt 0.009765625 0.982421875
vt 0.001953125 0.982421875
vt 0.001953125 0.98046875
vt 0.296875 0.642578125
vt 0.296875 0.650390625
vt 0.29296875 0.650390625
vt 0.29296875 0.642578125
vt 0.314453125 0.642578125
vt 0.314453125 0.650390625
vt 0.310546875 0.650390625
vt 0.310546875 0.642578125
vt 0.296875 0.654296875
vt 0.296875 0.650390625
vt 0.310546875 0.650390625
vt 0.310546875 0.654296875
vt 0.310546875 0.650390625
vt 0.310546875 0.654296875
vt 0.32421875 0.654296875
vt 0.32421875 0.650390625
vt 0.328125 0.642578125
vt 0.328125 0.650390625
vt 0.314453125 0.650390625
vt 0.314453125 0.642578125
vt 0.310546875 0.642578125
vt 0.310546875 0.650390625
vt 0.296875 0.650390625
vt 0.296875 0.642578125
vt 0.34765625 0.466796875
vt 0.34765625 0.5078125
vt 0.326171875 0.5078125
vt 0.326171875 0.466796875
vt 0.373046875 0.466796875
vt 0.373046875 0.5078125
vt 0.3515625 0.5078125
vt 0.3515625 0.466796875
vt 0.34765625 0.529296875
vt 0.34765625 0.5078125
vt 0.3515625 0.5078125
vt 0.3515625 0.529296875
vt 0.3515625 0.5078125
vt 0.3515625 0.529296875
vt 0.35546875 0.529296875
vt 0.35546875 0.5078125
vt 0.376953125 0.466796875
vt 0.376953125 0.5078125
vt 0.373046875 0.5078125
vt 0.373046875 0.466796875
vt 0.3515625 0.466796875
vt 0.3515625 0.5078125
vt 0.34765625 0.5078125
vt 0.34765625 0.466796875
vt 0.55859375 0.744140625
vt 0.55859375 0.779296875
vt 0.55078125 0.779296875
vt 0.55078125 0.744140625
vt 0.5703125 0.744140625
vt 0.5703125 0.779296875
vt 0.5625 0.779296875
vt 0.5625 0.744140625
vt 0.55859375 0.787109375
vt 0.55859375 0.779296875
vt 0.5625 0.779296875
vt 0.5625 0.787109375
vt 0.5625 0.779296875
vt 0.5625 0.787109375
vt 0.56640625 0.787109375
vt 0.56640625 0.779296875
vt 0.57421875 0.744140625
vt 0.57421875 0.779296875
vt 0.5703125 0.779296875
vt 0.5703125 0.744140625
vt 0.5625 0.744140625
vt 0.5625 0.779296875
vt 0.55859375 0.779296875
vt 0.55859375 0.744140625
vt 0.005859375 0.984375
vt 0.005859375 0.994140625
vt 0 0.994140625
vt 0 0.984375
vt 0.013671875 0.984375
vt 0.013671875 0.994140625
vt 0.0078125 0.994140625
vt 0.0078125 0.984375
vt 0.005859375 1
vt 0.005859375 0.994140625
vt 0.0078125 0.994140625
vt 0.0078125 1
vt 0.0078125 0.994140625
vt 0.0078125 1
vt 0.009765625 1
vt 0.009765625 0.994140625
vt 0.015625 0.984375
vt 0.015625 0.994140625
vt 0.013671875 0.994140625
vt 0.013671875 0.984375
vt 0.0078125 0.984375
vt 0.0078125 0.994140625
vt 0.005859375 0.994140625
vt 0.005859375 0.984375
vt 0.00390625 0.5859375
vt 0.00390625 0.59375
vt 0 0.59375
vt 0 0.5859375
vt 0.015625 0.5859375
vt 0.015625 0.59375
vt 0.01171875 0.59375
vt 0.01171875 0.5859375
vt 0.00390625 0.59765625
vt 0.00390625 0.59375
vt 0.01171875 0.59375
vt 0.01171875 0.59765625
vt 0.01171875 0.59375
vt 0.01171875 0.59765625
vt 0.01953125 0.59765625
vt 0.01953125 0.59375
vt 0.0234375 0.5859375
vt 0.0234375 0.59375
vt 0.015625 0.59375
vt 0.015625 0.5859375
vt 0.01171875 0.5859375
vt 0.01171875 0.59375
vt 0.00390625 0.59375
vt 0.00390625 0.5859375
vt 0.072265625 0.609375
vt 0.072265625 0.6171875
vt 0.068359375 0.6171875
vt 0.068359375 0.609375
vt 0.083984375 0.609375
vt 0.083984375 0.6171875
vt 0.080078125 0.6171875
vt 0.080078125 0.609375
vt 0.072265625 0.62109375
vt 0.072265625 0.6171875
vt 0.080078125 0.6171875
vt 0.080078125 0.62109375
vt 0.080078125 0.6171875
vt 0.080078125 0.62109375
vt 0.087890625 0.62109375
vt 0.087890625 0.6171875
vt 0.091796875 0.609375
vt 0.091796875 0.6171875
vt 0.083984375 0.6171875
vt 0.083984375 0.609375
vt 0.080078125 0.609375
vt 0.080078125 0.6171875
vt 0.072265625 0.6171875
vt 0.072265625 0.609375
vt 0.193359375 0.732421875
vt 0.193359375 0.73828125
vt 0.189453125 0.73828125
vt 0.189453125 0.732421875
vt 0.205078125 0.732421875
vt 0.205078125 0.73828125
vt 0.201171875 0.73828125
vt 0.201171875 0.732421875
vt 0.193359375 0.7421875
vt 0.193359375 0.73828125
vt 0.201171875 0.73828125
vt 0.201171875 0.7421875
vt 0.201171875 0.73828125
vt 0.201171875 0.7421875
vt 0.208984375 0.7421875
vt 0.208984375 0.73828125
vt 0.212890625 0.732421875
vt 0.212890625 0.73828125
vt 0.205078125 0.73828125
vt 0.205078125 0.732421875
vt 0.201171875 0.732421875
vt 0.201171875 0.73828125
vt 0.193359375 0.73828125
vt 0.193359375 0.732421875
vt 0.1015625 0.69140625
vt 0.1015625 0.73046875
vt 0.08984375 0.73046875
vt 0.08984375 0.69140625
vt 0.1171875 0.69140625
vt 0.1171875 0.73046875
vt 0.10546875 0.73046875
vt 0.10546875 0.69140625
vt 0.1015625 0.7421875
vt 0.1015625 0.73046875
vt 0.10546875 0.73046875
vt 0.10546875 0.7421875
vt 0.10546875 0.73046875
vt 0.10546875 0.7421875
vt 0.109375 0.7421875
vt 0.109375 0.73046875
vt 0.12109375 0.69140625
vt 0.12109375 0.73046875
vt 0.1171875 0.73046875
vt 0.1171875 0.69140625
vt 0.10546875 0.69140625
vt 0.10546875 0.73046875
vt 0.1015625 0.73046875
vt 0.1015625 0.69140625
vt 0.521484375 0.431640625
vt 0.521484375 0.435546875
vt 0.5 0.435546875
vt 0.5 0.431640625
vt 0.546875 0.431640625
vt 0.546875 0.435546875
vt 0.525390625 0.435546875
vt 0.525390625 0.431640625
vt 0.521484375 0.45703125
vt 0.521484375 0.435546875
vt 0.525390625 0.435546875
vt 0.525390625 0.45703125
vt 0.525390625 0.435546875
vt 0.525390625 0.45703125
vt 0.529296875 0.45703125
vt 0.529296875 0.435546875
vt 0.55078125 0.431640625
vt 0.55078125 0.435546875
vt 0.546875 0.435546875
vt 0.546875 0.431640625
vt 0.525390625 0.431640625
vt 0.525390625 0.435546875
vt 0.521484375 0.435546875
vt 0.521484375 0.431640625
vt 0.494140625 0.50390625
vt 0.494140625 0.5078125
vt 0.462890625 0.5078125
vt 0.462890625 0.50390625
vt 0.529296875 0.50390625
vt 0.529296875 0.5078125
vt 0.498046875 0.5078125
vt 0.498046875 0.50390625
vt 0.494140625 0.5390625
vt 0.494140625 0.5078125
vt 0.498046875 0.5078125
vt 0.498046875 0.5390625
vt 0.498046875 0.5078125
vt 0.498046875 0.5390625
vt 0.501953125 0.5390625
vt 0.501953125 0.5078125
vt 0.533203125 0.50390625
vt 0.533203125 0.5078125
vt 0.529296875 0.5078125
vt 0.529296875 0.50390625
vt 0.498046875 0.50390625
vt 0.498046875 0.5078125
vt 0.494140625 0.5078125
vt 0.494140625 0.50390625
vt 0.330078125 0.94140625
vt 0.330078125 0.9453125
vt 0.322265625 0.9453125
vt 0.322265625 0.94140625
vt 0.341796875 0.94140625
vt 0.341796875 0.9453125
vt 0.333984375 0.9453125
vt 0.333984375 0.94140625
vt 0.330078125 0.953125
vt 0.330078125 0.9453125
vt 0.333984375 0.9453125
vt 0.333984375 0.953125
vt 0.333984375 0.9453125
vt 0.333984375 0.953125
vt 0.337890625 0.953125
vt 0.337890625 0.9453125
vt 0.345703125 0.94140625
vt 0.345703125 0.9453125
vt 0.341796875 0.9453125
vt 0.341796875 0.94140625
vt 0.333984375 0.94140625
vt 0.333984375 0.9453125
vt 0.330078125 0.9453125
vt 0.330078125 0.94140625
vt 0.560546875 0.962890625
vt 0.560546875 0.96875
vt 0.5390625 0.96875
vt 0.5390625 0.962890625
vt 0.5859375 0.962890625
vt 0.5859375 0.96875
vt 0.564453125 0.96875
vt 0.564453125 0.962890625
vt 0.560546875 0.990234375
vt 0.560546875 0.96875
vt 0.564453125 0.96875
vt 0.564453125 0.990234375
vt 0.564453125 0.96875
vt 0.564453125 0.990234375
vt 0.568359375 0.990234375
vt 0.568359375 0.96875
vt 0.58984375 0.962890625
vt 0.58984375 0.96875
vt 0.5859375 0.96875
vt 0.5859375 0.962890625
vt 0.564453125 0.962890625
vt 0.564453125 0.96875
vt 0.560546875 0.96875
vt 0.560546875 0.962890625
vt 0.0234375 0.740234375
vt 0.0234375 0.765625
vt 0.01953125 0.765625
vt 0.01953125 0.740234375
vt 0.03125 0.740234375
vt 0.03125 0.765625
vt 0.02734375 0.765625
vt 0.02734375 0.740234375
vt 0.0234375 0.76953125
vt 0.0234375 0.765625
vt 0.02734375 0.765625
vt 0.02734375 0.76953125
vt 0.02734375 0.765625
vt 0.02734375 0.76953125
vt 0.03125 0.76953125
vt 0.03125 0.765625
vt 0.03515625 0.740234375
vt 0.03515625 0.765625
vt 0.03125 0.765625
vt 0.03125 0.740234375
vt 0.02734375 0.740234375
vt 0.02734375 0.765625
vt 0.0234375 0.765625
vt 0.0234375 0.740234375
vt 0.07421875 0.978515625
vt 0.07421875 0.99609375
vt 0.0703125 0.99609375
vt 0.0703125 0.978515625
vt 0.08203125 0.978515625
vt 0.08203125 0.99609375
vt 0.078125 0.99609375
vt 0.078125 0.978515625
vt 0.07421875 1
vt 0.07421875 0.99609375
vt 0.078125 0.99609375
vt 0.078125 1
vt 0.078125 0.99609375
vt 0.078125 1
vt 0.08203125 1
vt 0.08203125 0.99609375
vt 0.0859375 0.978515625
vt 0.0859375 0.99609375
vt 0.08203125 0.99609375
vt 0.08203125 0.978515625
vt 0.078125 0.978515625
vt 0.078125 0.99609375
vt 0.07421875 0.99609375
vt 0.07421875 0.978515625
vn 0.9901171897514683 0.0172821950531282 0.13917354738886545
vn -0.9901171897514683 -0.0172821950531282 -0.13917354738886545
vn -0.017451963827515567 0.9998477028819355 -5.291528825980552e-7
vn 0.017451963827515567 -0.9998477028819355 5.291528825980552e-7
vn -0.13915236080361057 -0.002428327791412436 0.9902680059998502
vn 0.13915236080361057 0.002428327791412436 -0.9902680059998502
vn 0.9901171897514683 0.0172821950531282 0.13917354738886545
vn -0.9901171897514683 -0.0172821950531282 -0.13917354738886545
vn -0.01745196382751538 0.9998477028819355 -5.291528839286674e-7
vn 0.017451963827515876 -0.9998477028819355 5.291528839982094e-7
vn -0.13915236080361104 -0.0024283277914132185 0.9902680059998501
vn 0.13915236080361007 0.0024283277914124274 -0.9902680059998503
vn 1 -3.1615335349677314e-16 -3.6082248300317597e-16
vn -1 2.622685055242435e-16 -3.0531133177191805e-16
vn 1.4155343563970746e-15 1.0711917464156784e-16 -1
vn -7.216449660063518e-16 -2.476317761956892e-16 1
vn -2.458970527197124e-16 1 1.0321604682062002e-16
vn -1.0480440300331129e-15 -1 -2.6107588313450947e-16
vn 0.9848077530122077 0.17364817766693363 1.9428902930940244e-16
vn -0.9848077530122081 -0.17364817766693003 -1.9428902930940244e-16
vn 2.6367796834847468e-15 -4.462576141950336e-16 -1
vn 2.220446049250313e-16 5.724587470723463e-17 1
vn -0.17364817766692922 0.9848077530122084 3.8510861166685117e-16
vn 0.17364817766693164 -0.984807753012208 -1.9081958235744883e-16
vn 1 1.1237755517812255e-15 -1.8596235662471376e-15
vn -1 -9.332270199668981e-16 -8.881784197001254e-16
vn -4.524158825347512e-15 9.93562870865716e-16 -1
vn 7.771561172376094e-16 1.7911019889460528e-16 1
vn -3.9036699220340587e-16 1 3.0097452308197603e-16
vn 3.938364391553595e-16 -1 -3.5041414214731503e-16
vn 1 7.452805733665359e-16 -3.164135620181697e-15
vn -1 -5.714287550084852e-16 -1.3045120539345591e-15
vn -3.3306690738754696e-16 0.6087614290087205 -0.7933533402912353
vn 8.465450562766819e-16 -0.6087614290087202 0.7933533402912355
vn -5.551115123125784e-16 0.7933533402912348 0.6087614290087213
vn 3.7470027081099033e-16 -0.7933533402912352 -0.6087614290087208
vn 1 -8.819984673169579e-16 2.6922908347160046e-15
vn -1 1.0180658399638889e-16 5.551115123125784e-17
vn -4.0939474033052647e-16 0.9537169507482273 -0.30070579950427234
vn -2.1510571102112408e-16 -0.9537169507482272 0.3007057995042726
vn 4.163336342344337e-16 0.30070579950427284 0.953716950748227
vn 6.38378239159465e-16 -0.3007057995042741 -0.9537169507482266
vn 1 -9.980623098815313e-16 4.163336342344338e-16
vn -1 9.009720053354544e-16 -4.440892098500627e-16
vn -5.733261088103347e-16 1 -1.0972125985553305e-16
vn 5.746813615259416e-16 -1 2.6935918773229872e-15
vn 4.163336342344337e-16 6.188626000547259e-16 1
vn -3.885780586188048e-16 3.187554387107383e-16 -1
vn 1 9.695477927451623e-16 2.498001805406602e-16
vn -1 -9.745893328472201e-16 4.440892098500627e-16
vn 1.3877787807814457e-15 -1.7954387976359953e-16 -1
vn -1.1102230246251565e-16 -1.5005358067199381e-16 1
vn -2.4540916174209393e-16 1 1.5005358067199381e-16
vn 2.4329496750574715e-16 -1 1.561251128379126e-17
vn 1 -3.11599704372334e-16 5.828670879282073e-16
vn -1 3.1463547045529344e-16 -4.440892098500627e-16
vn 8.326672684688674e-17 1.0625181290357943e-16 -1
vn -8.326672684688674e-17 2.1337098754514727e-16 1
vn -2.3727764544845265e-16 1 -1.0928757898653885e-16
vn 2.4427074946098415e-16 -1 1.0972125985553305e-16
vn 0.9961946737831473 0.08715602059548389 -2.2012329778386968e-7
vn -0.9961946737831473 -0.08715602059548372 2.2012329767284738e-7
vn -0.0530574551646396 0.6064455357522313 -0.7933528336229987
vn 0.053057455164639736 -0.606445535752231 0.7933528336229989
vn -0.0691453424139383 0.7903338789651833 0.6087620893110102
vn 0.06914534241393933 -0.7903338789651804 -0.6087620893110139
vn 1 1.4006807866340236e-15 -5.91193760612896e-15
vn -1 1.0840395421596318e-15 -1.5265566588595906e-15
vn -5.412337245047638e-16 0.7071067811865478 -0.7071067811865472
vn 0 -0.7071067811865476 0.7071067811865476
vn -5.689893001203927e-16 0.7071067811865472 0.7071067811865478
vn 4.163336342344336e-17 -0.7071067811865472 -0.7071067811865478
vn 0.9961946980917455 0.08715574274765792 -3.7192471324942744e-15
vn -0.9961946980917455 -0.08715574274765787 -8.881784197001254e-16
vn -4.996003610813203e-16 3.7860339863193805e-16 -1
vn 4.718447854656914e-16 -3.989863994746656e-17 1
vn -0.08715574274765851 0.9961946980917457 3.469446951953614e-17
vn 0.08715574274765975 -0.9961946980917454 -2.949029909160572e-17
vn 0.9961946980917453 0.08715574274766079 4.718447854656915e-16
vn -0.9961946980917457 -0.08715574274765858 -5.273559366969495e-16
vn 5.551115123125783e-16 -1.687018580387445e-16 -1
vn -1.9428902930940235e-16 2.0036056147532117e-16 1
vn -0.08715574274765922 0.9961946980917455 -3.469446951953614e-17
vn 0.08715574274765653 -0.9961946980917457 -5.117434254131581e-16
vn 1 1.0337325613563042e-15 9.43689570931383e-16
vn -1 -1.0337325613563042e-15 -9.43689570931383e-16
vn 8.326672684688672e-17 4.0766001685454957e-16 -1
vn -8.326672684688672e-17 4.722784663346856e-16 1
vn -2.4047604185728483e-16 1 1.1535911115245765e-16
vn 2.4394548880923845e-16 -1 -1.1492543028346345e-16
usemtl m_8573418f-5d4d-53a4-631b-ce27ae6a5793
f 4/1/1 2/2/1 1/3/1 3/4/1
f 7/5/2 5/6/2 6/7/2 8/8/2
f 1/9/3 2/10/3 6/11/3 5/12/3
f 4/13/4 3/14/4 7/15/4 8/16/4
f 3/17/5 1/18/5 5/19/5 7/20/5
f 8/21/6 6/22/6 2/23/6 4/24/6
f 12/25/7 10/26/7 9/27/7 11/28/7
f 15/29/8 13/30/8 14/31/8 16/32/8
f 9/33/9 10/34/9 14/35/9 13/36/9
f 12/37/10 11/38/10 15/39/10 16/40/10
f 11/41/11 9/42/11 13/43/11 15/44/11
f 16/45/12 14/46/12 10/47/12 12/48/12
f 20/49/13 18/50/13 17/51/13 19/52/13
f 23/53/14 21/54/14 22/55/14 24/56/14
f 17/57/15 18/58/15 22/59/15 21/60/15
f 20/61/16 19/62/16 23/63/16 24/64/16
f 19/65/17 17/66/17 21/67/17 23/68/17
f 24/69/18 22/70/18 18/71/18 20/72/18
f 28/73/19 26/74/19 25/75/19 27/76/19
f 31/77/20 29/78/20 30/79/20 32/80/20
f 25/81/21 26/82/21 30/83/21 29/84/21
f 28/85/22 27/86/22 31/87/22 32/88/22
f 27/89/23 25/90/23 29/91/23 31/92/23
f 32/93/24 30/94/24 26/95/24 28/96/24
f 36/97/25 34/98/25 33/99/25 35/100/25
f 39/101/26 37/102/26 38/103/26 40/104/26
f 33/105/27 34/106/27 38/107/27 37/108/27
f 36/109/28 35/110/28 39/111/28 40/112/28
f 35/113/29 33/114/29 37/115/29 39/116/29
f 40/117/30 38/118/30 34/119/30 36/120/30
f 44/121/31 42/122/31 41/123/31 43/124/31
f 47/125/32 45/126/32 46/127/32 48/128/32
f 41/129/33 42/130/33 46/131/33 45/132/33
f 44/133/34 43/134/34 47/135/34 48/136/34
f 43/137/35 41/138/35 45/139/35 47/140/35
f 48/141/36 46/142/36 42/143/36 44/144/36
f 52/145/37 50/146/37 49/147/37 51/148/37
f 55/149/38 53/150/38 54/151/38 56/152/38
f 49/153/39 50/154/39 54/155/39 53/156/39
f 52/157/40 51/158/40 55/159/40 56/160/40
f 51/161/41 49/162/41 53/163/41 55/164/41
f 56/165/42 54/166/42 50/167/42 52/168/42
f 60/169/43 58/170/43 57/171/43 59/172/43
f 63/173/44 61/174/44 62/175/44 64/176/44
f 57/177/45 58/178/45 62/179/45 61/180/45
f 60/181/46 59/182/46 63/183/46 64/184/46
f 59/185/47 57/186/47 61/187/47 63/188/47
f 64/189/48 62/190/48 58/191/48 60/192/48
f 68/193/49 66/194/49 65/195/49 67/196/49
f 71/197/50 69/198/50 70/199/50 72/200/50
f 65/201/51 66/202/51 70/203/51 69/204/51
f 68/205/52 67/206/52 71/207/52 72/208/52
f 67/209/53 65/210/53 69/211/53 71/212/53
f 72/213/54 70/214/54 66/215/54 68/216/54
f 76/217/55 74/218/55 73/219/55 75/220/55
f 79/221/56 77/222/56 78/223/56 80/224/56
f 73/225/57 74/226/57 78/227/57 77/228/57
f 76/229/58 75/230/58 79/231/58 80/232/58
f 75/233/59 73/234/59 77/235/59 79/236/59
f 80/237/60 78/238/60 74/239/60 76/240/60
f 84/241/61 82/242/61 81/243/61 83/244/61
f 87/245/62 85/246/62 86/247/62 88/248/62
f 81/249/63 82/250/63 86/251/63 85/252/63
f 84/253/64 83/254/64 87/255/64 88/256/64
f 83/257/65 81/258/65 85/259/65 87/260/65
f 88/261/66 86/262/66 82/263/66 84/264/66
f 92/265/67 90/266/67 89/267/67 91/268/67
f 95/269/68 93/270/68 94/271/68 96/272/68
f 89/273/69 90/274/69 94/275/69 93/276/69
f 92/277/70 91/278/70 95/279/70 96/280/70
f 91/281/71 89/282/71 93/283/71 95/284/71
f 96/285/72 94/286/72 90/287/72 92/288/72
f 100/289/73 98/290/73 97/291/73 99/292/73
f 103/293/74 101/294/74 102/295/74 104/296/74
f 97/297/75 98/298/75 102/299/75 101/300/75
f 100/301/76 99/302/76 103/303/76 104/304/76
f 99/305/77 97/306/77 101/307/77 103/308/77
f 104/309/78 102/310/78 98/311/78 100/312/78
f 108/313/79 106/314/79 105/315/79 107/316/79
f 111/317/80 109/318/80 110/319/80 112/320/80
f 105/321/81 106/322/81 110/323/81 109/324/81
f 108/325/82 107/326/82 111/327/82 112/328/82
f 107/329/83 105/330/83 109/331/83 111/332/83
f 112/333/84 110/334/84 106/335/84 108/336/84
f 116/337/85 114/338/85 113/339/85 115/340/85
f 119/341/86 117/342/86 118/343/86 120/344/86
f 113/345/87 114/346/87 118/347/87 117/348/87
f 116/349/88 115/350/88 119/351/88 120/352/88
f 115/353/89 113/354/89 117/355/89 119/356/89
f 120/357/90 118/358/90 114/359/90 116/360/90